<svg width="32" height="32" viewBox="0 0 32 32" fill="none" xmlns="http://www.w3.org/2000/svg">
<path d="M20 10H18V12H20V10Z" fill="white"/>
<path d="M14 10H12V12H14V10Z" fill="white"/>
<path d="M26 20H21V18H22C22.5302 17.9994 23.0386 17.7885 23.4135 17.4135C23.7885 17.0386 23.9994 16.5302 24 16V12H26V10H24V8C23.9994 7.46975 23.7885 6.9614 23.4135 6.58646C23.0386 6.21152 22.5302 6.00061 22 6H20V2H18V6H14V2H12V6H10C9.46975 6.00061 8.9614 6.21152 8.58646 6.58646C8.21152 6.9614 8.00061 7.46975 8 8V10H6V12H8V16C8.00061 16.5302 8.21152 17.0386 8.58646 17.4135C8.9614 17.7885 9.46975 17.9994 10 18H11V20H6C5.46975 20.0006 4.9614 20.2115 4.58646 20.5865C4.21152 20.9614 4.00061 21.4698 4 22V30H6V22H26V30H28V22C27.9994 21.4698 27.7885 20.9614 27.4135 20.5865C27.0386 20.2115 26.5302 20.0006 26 20ZM10 8H22V16H10V8ZM13 18H19V20H13V18Z" fill="white"/>
</svg>
