<svg width="32" height="32" viewBox="0 0 32 32" fill="none" xmlns="http://www.w3.org/2000/svg">
<path d="M8 20H4.73C4.55673 19.6944 4.30504 19.4407 4.00092 19.2649C3.6968 19.0891 3.35127 18.9976 3 19C2.46957 19 1.96086 19.2107 1.58579 19.5858C1.21071 19.9609 1 20.4696 1 21C1 21.5304 1.21071 22.0392 1.58579 22.4142C1.96086 22.7893 2.46957 23 3 23C3.35127 23.0024 3.6968 22.9109 4.00092 22.7352C4.30504 22.5594 4.55673 22.3056 4.73 22H8V20Z" fill="white"/>
<path d="M29 9.00001C28.6487 8.99765 28.3032 9.08908 27.9991 9.26488C27.695 9.44067 27.4433 9.69445 27.27 10H24V12H27.27C27.4457 12.3037 27.6982 12.5559 28.0022 12.7311C28.3062 12.9063 28.6509 12.9984 29.0018 12.9982C29.3527 12.998 29.6973 12.9054 30.001 12.7298C30.3048 12.5542 30.557 12.3017 30.7323 11.9978C30.9076 11.6938 30.9997 11.3491 30.9996 10.9982C30.9994 10.6474 30.9069 10.3027 30.7314 9.99891C30.5558 9.69511 30.3034 9.44287 29.9995 9.26753C29.6956 9.09219 29.3509 8.99993 29 9.00001Z" fill="white"/>
<path d="M25.4141 5.00001L21 0.585907L16.5859 5.00001L20 8.41411V18H22V8.41411L25.4141 5.00001ZM21 3.41411L22.5859 5.00001L21 6.58591L19.4141 5.00001L21 3.41411Z" fill="white"/>
<path d="M12 23.5859V14H10V23.5859L6.58594 27L11 31.4141L15.4141 27L12 23.5859ZM9.41414 27L11 25.4141L12.5859 27L11 28.5859L9.41414 27Z" fill="white"/>
<path d="M18 10H8.41414L5.00004 6.58591L0.585938 11L5.00004 15.4141L8.41414 12H18V10ZM5.00004 12.5859L3.41414 11L5.00004 9.41411L6.58594 11L5.00004 12.5859Z" fill="white"/>
<path d="M13 3C13 2.46957 12.7893 1.96086 12.4143 1.58579C12.0392 1.21071 11.5305 1 11 1C10.4696 1 9.96091 1.21071 9.58583 1.58579C9.21076 1.96086 9.00005 2.46957 9.00005 3C8.99766 3.35127 9.08908 3.69681 9.26488 4.00093C9.44067 4.30506 9.69447 4.55675 10 4.73V8H12V4.73C12.3056 4.55675 12.5594 4.30506 12.7352 4.00093C12.911 3.69681 13.0024 3.35127 13 3Z" fill="white"/>
<path d="M22 27.2705V24H20V27.27C19.6187 27.4901 19.3207 27.8299 19.1522 28.2367C18.9838 28.6434 18.9542 29.0944 19.0681 29.5197C19.1821 29.945 19.4332 30.3207 19.7825 30.5888C20.1318 30.8568 20.5597 31.0021 21 31.0021C21.4403 31.0021 21.8682 30.8568 22.2175 30.5888C22.5668 30.3207 22.8179 29.945 22.9319 29.5197C23.0458 29.0944 23.0162 28.6434 22.8478 28.2367C22.6793 27.8299 22.3813 27.4901 22 27.27V27.2705Z" fill="white"/>
<path d="M31.4141 21L27 16.5859L23.5859 20H14V22H23.5859L27 25.4141L31.4141 21ZM27 19.4141L28.5859 21L27 22.5859L25.4141 21L27 19.4141Z" fill="white"/>
</svg>
