<svg width="32" height="32" viewBox="0 0 32 32" fill="none" xmlns="http://www.w3.org/2000/svg">
<path d="M25.3943 24C25.9916 22.5662 26.1517 20.9878 25.8545 19.4632C25.5572 17.9386 24.8158 16.536 23.7236 15.4316C24.0242 14.6744 24.0812 13.8424 23.8869 13.0513C23.6925 12.2602 23.2564 11.5493 22.6392 11.0176L25.4151 8.24171C25.7896 7.86631 25.9999 7.35769 25.9999 6.82741C25.9999 6.29714 25.7896 5.78852 25.4151 5.41311L22.5869 2.58491C22.2115 2.2103 21.7029 1.99991 21.1726 1.99991C20.6423 1.99991 20.1337 2.2103 19.7583 2.58491L6.5859 15.7573C6.21143 16.1327 6.00114 16.6414 6.00114 17.1716C6.00114 17.7019 6.21143 18.2105 6.5859 18.5859L9.4141 21.4141C9.78949 21.7887 10.2981 21.999 10.8284 21.999C11.3587 21.999 11.8673 21.7887 12.2427 21.4141L17.0176 16.6387C17.6947 17.4222 18.6534 17.907 19.6857 17.988C20.718 18.069 21.7405 17.7396 22.5315 17.0713C23.3535 18.0119 23.8584 19.1875 23.9744 20.4313C24.0903 21.675 23.8115 22.9237 23.1775 24H16V28H4V30H28V24H25.3943ZM10.8281 20L8 17.1714L9.8787 15.293L12.707 18.1211L10.8281 20ZM16 14C16.0015 14.2527 16.027 14.5046 16.0762 14.7524L14.1211 16.707L11.2927 13.8789L21.1727 3.99891L24.001 6.82711L20.7522 10.0762C20.1736 9.96123 19.5766 9.97641 19.0046 10.1207C18.4325 10.2649 17.8997 10.5346 17.4448 10.9102C16.9899 11.2858 16.6243 11.758 16.3744 12.2924C16.1245 12.8268 15.9966 13.4101 16 14V14ZM20 16C19.6044 16 19.2178 15.8827 18.8889 15.663C18.56 15.4432 18.3036 15.1308 18.1522 14.7654C18.0009 14.3999 17.9613 13.9978 18.0384 13.6098C18.1156 13.2219 18.3061 12.8655 18.5858 12.5858C18.8655 12.3061 19.2219 12.1156 19.6098 12.0384C19.9978 11.9613 20.3999 12.0009 20.7654 12.1523C21.1308 12.3036 21.4432 12.56 21.6629 12.8889C21.8827 13.2178 22 13.6045 22 14C21.9994 14.5303 21.7885 15.0386 21.4135 15.4136C21.0386 15.7885 20.5302 15.9994 20 16V16ZM26 28H18V26H26V28Z" fill="white"/>
</svg>
