<svg width="32" height="32" viewBox="0 0 32 32" fill="none" xmlns="http://www.w3.org/2000/svg">
<path d="M23.0016 20.0002C22.2531 20.004 21.515 20.1757 20.8417 20.5029C20.1685 20.83 19.5772 21.3041 19.1116 21.8902L11.8016 17.3202C12.0681 16.4604 12.0681 15.54 11.8016 14.6802L19.1116 10.1102C19.8536 11.0289 20.8968 11.6554 22.0564 11.8786C23.216 12.1018 24.4172 11.9074 25.4472 11.3298C26.4772 10.7522 27.2695 9.8287 27.6838 8.72285C28.098 7.61701 28.1076 6.40022 27.7106 5.28804C27.3136 4.17585 26.5359 3.24006 25.515 2.64643C24.4942 2.05281 23.2962 1.83965 22.1332 2.04474C20.9702 2.24983 19.9174 2.85991 19.1612 3.76692C18.405 4.67393 17.9942 5.81933 18.0016 7.0002C18.0064 7.44738 18.0737 7.8917 18.2016 8.3202L10.8916 12.8902C10.2463 12.0778 9.36419 11.4863 8.3676 11.1976C7.37101 10.9089 6.30931 10.9375 5.32966 11.2792C4.35001 11.621 3.50094 12.259 2.90014 13.1049C2.29933 13.9508 1.97656 14.9627 1.97656 16.0002C1.97656 17.0378 2.29933 18.0496 2.90014 18.8955C3.50094 19.7414 4.35001 20.3794 5.32966 20.7212C6.30931 21.0629 7.37101 21.0915 8.3676 20.8028C9.36419 20.5142 10.2463 19.9226 10.8916 19.1102L18.2016 23.6802C18.0737 24.1087 18.0064 24.553 18.0016 25.0002C18.0016 25.9891 18.2949 26.9558 18.8443 27.7781C19.3937 28.6003 20.1746 29.2412 21.0882 29.6196C22.0019 29.998 23.0072 30.0971 23.9771 29.9041C24.947 29.7112 25.8379 29.235 26.5372 28.5357C27.2364 27.8365 27.7126 26.9456 27.9056 25.9757C28.0985 25.0058 27.9995 24.0004 27.621 23.0868C27.2426 22.1732 26.6017 21.3923 25.7795 20.8429C24.9573 20.2934 23.9906 20.0002 23.0016 20.0002ZM23.0016 4.0002C23.595 4.0002 24.175 4.17615 24.6684 4.5058C25.1617 4.83544 25.5462 5.30398 25.7733 5.85215C26.0003 6.40033 26.0598 7.00353 25.944 7.58547C25.8282 8.16742 25.5425 8.70197 25.123 9.12152C24.7034 9.54108 24.1689 9.8268 23.5869 9.94256C23.005 10.0583 22.4018 9.99891 21.8536 9.77184C21.3054 9.54478 20.8369 9.16026 20.5072 8.66691C20.1776 8.17357 20.0016 7.59355 20.0016 7.0002C20.0016 6.20455 20.3177 5.44149 20.8803 4.87888C21.4429 4.31627 22.206 4.0002 23.0016 4.0002ZM7.00165 19.0002C6.40831 19.0002 5.82829 18.8243 5.33494 18.4946C4.84159 18.165 4.45707 17.6964 4.23001 17.1483C4.00295 16.6001 3.94354 15.9969 4.05929 15.4149C4.17505 14.833 4.46077 14.2984 4.88033 13.8789C5.29989 13.4593 5.83443 13.1736 6.41638 13.0578C6.99832 12.9421 7.60152 13.0015 8.1497 13.2286C8.69788 13.4556 9.16641 13.8401 9.49606 14.3335C9.8257 14.8268 10.0016 15.4069 10.0016 16.0002C10.0016 16.7959 9.68558 17.5589 9.12297 18.1215C8.56036 18.6841 7.7973 19.0002 7.00165 19.0002ZM23.0016 28.0002C22.4083 28.0002 21.8283 27.8243 21.3349 27.4946C20.8416 27.165 20.4571 26.6964 20.23 26.1483C20.0029 25.6001 19.9435 24.9969 20.0593 24.4149C20.175 23.833 20.4608 23.2984 20.8803 22.8789C21.2999 22.4593 21.8344 22.1736 22.4164 22.0578C22.9983 21.9421 23.6015 22.0015 24.1497 22.2286C24.6979 22.4556 25.1664 22.8401 25.4961 23.3335C25.8257 23.8268 26.0016 24.4069 26.0016 25.0002C26.0016 25.7959 25.6856 26.5589 25.123 27.1215C24.5604 27.6841 23.7973 28.0002 23.0016 28.0002Z" fill="white"/>
</svg>
