<svg width="32" height="32" viewBox="0 0 32 32" fill="none" xmlns="http://www.w3.org/2000/svg">
<path d="M26.0003 21V20C26.0003 19.7348 26.1057 19.4804 26.2932 19.2929C26.4807 19.1054 26.7351 19 27.0003 19C27.2655 19 27.5199 19.1054 27.7074 19.2929C27.895 19.4804 28.0003 19.7348 28.0003 20V30H30.0003V20C29.9994 19.2046 29.6831 18.4421 29.1207 17.8796C28.5583 17.3172 27.7957 17.0009 27.0003 17C26.4834 17.0033 25.9764 17.1416 25.5295 17.4014C25.1247 16.7462 24.48 16.2749 23.7328 16.0882C22.9856 15.9014 22.195 16.0138 21.5295 16.4014C21.2606 15.9732 20.8876 15.6201 20.4454 15.3751C20.0031 15.13 19.5059 15.001 19.0003 15C18.6588 15.0034 18.3205 15.0658 18.0003 15.1846V10C18.0003 9.20435 17.6842 8.44129 17.1216 7.87868C16.559 7.31607 15.796 7 15.0003 7C14.2047 7 13.4416 7.31607 12.879 7.87868C12.3164 8.44129 12.0003 9.20435 12.0003 10V21.1045L9.76542 19.5752L9.76462 19.5762C9.15385 19.1314 8.39768 18.9335 7.6473 19.0221C6.89692 19.1107 6.20764 19.4793 5.71729 20.0541C5.22694 20.629 4.97166 21.3678 5.0025 22.1228C5.03334 22.8777 5.34802 23.5932 5.88362 24.1262L12.3226 30L13.6705 28.522L7.29182 22.7036C7.19922 22.6113 7.12579 22.5017 7.07576 22.3809C7.02574 22.2602 7.00009 22.1307 7.00032 22C7.00036 21.8143 7.05208 21.6323 7.14969 21.4743C7.2473 21.3163 7.38696 21.1886 7.55302 21.1055C7.71909 21.0224 7.90501 20.9871 8.08997 21.0037C8.27494 21.0202 8.45165 21.0879 8.60032 21.1992L14.0003 24.8955V10C14.0003 9.73478 14.1057 9.48043 14.2932 9.29289C14.4807 9.10536 14.7351 9 15.0003 9C15.2655 9 15.5199 9.10536 15.7074 9.29289C15.895 9.48043 16.0003 9.73478 16.0003 10V10V21H18.0003V18C18.0003 17.7348 18.1057 17.4804 18.2932 17.2929C18.4807 17.1054 18.7351 17 19.0003 17C19.2655 17 19.5199 17.1054 19.7074 17.2929C19.895 17.4804 20.0003 17.7348 20.0003 18V21H22.0003V19C22.0003 18.7348 22.1057 18.4804 22.2932 18.2929C22.4807 18.1054 22.7351 18 23.0003 18C23.2655 18 23.5199 18.1054 23.7074 18.2929C23.895 18.4804 24.0003 18.7348 24.0003 19V21H26.0003Z" fill="white"/>
<path d="M28 12H22V10H28V4H4V10H8V12H4C3.46974 11.9994 2.96135 11.7886 2.5864 11.4136C2.21145 11.0386 2.00056 10.5303 2 10V4C2.00056 3.46974 2.21145 2.96135 2.5864 2.5864C2.96135 2.21145 3.46974 2.00056 4 2H28C28.5303 2.00056 29.0386 2.21145 29.4136 2.5864C29.7886 2.96135 29.9994 3.46974 30 4V10C29.9994 10.5303 29.7886 11.0386 29.4136 11.4136C29.0386 11.7886 28.5303 11.9994 28 12V12Z" fill="white"/>
</svg>
