<svg width="32" height="32" viewBox="0 0 32 32" fill="none" xmlns="http://www.w3.org/2000/svg">
<path d="M23 9.00491H29C29.5304 9.00491 30.0391 8.7942 30.4142 8.41913C30.7893 8.04405 31 7.53535 31 7.00491V3.00491C31 2.47448 30.7893 1.96577 30.4142 1.5907C30.0391 1.21563 29.5304 1.00491 29 1.00491H23C22.4696 1.00491 21.9609 1.21563 21.5858 1.5907C21.2107 1.96577 21 2.47448 21 3.00491V4.00491H11V3.00491C11 2.47448 10.7893 1.96577 10.4142 1.5907C10.0391 1.21563 9.53043 1.00491 9 1.00491H3C2.46957 1.00491 1.96086 1.21563 1.58579 1.5907C1.21071 1.96577 1 2.47448 1 3.00491V7.00491C1 7.53535 1.21071 8.04405 1.58579 8.41913C1.96086 8.7942 2.46957 9.00491 3 9.00491H9C9.53043 9.00491 10.0391 8.7942 10.4142 8.41913C10.7893 8.04405 11 7.53535 11 7.00491V6.00491H15V26.0049C15.0006 26.5352 15.2115 27.0435 15.5865 27.4185C15.9614 27.7934 16.4698 28.0043 17 28.0049H21V29.0049C21 29.5353 21.2107 30.0441 21.5858 30.4191C21.9609 30.7942 22.4696 31.0049 23 31.0049H29C29.5304 31.0049 30.0391 30.7942 30.4142 30.4191C30.7893 30.0441 31 29.5353 31 29.0049V25.0049C31 24.4745 30.7893 23.9658 30.4142 23.5907C30.0391 23.2156 29.5304 23.0049 29 23.0049H23C22.4696 23.0049 21.9609 23.2156 21.5858 23.5907C21.2107 23.9658 21 24.4745 21 25.0049V26.0049H17V17.0049H21V18.0049C21 18.5353 21.2107 19.0441 21.5858 19.4191C21.9609 19.7942 22.4696 20.0049 23 20.0049H29C29.5304 20.0049 30.0391 19.7942 30.4142 19.4191C30.7893 19.0441 31 18.5353 31 18.0049V14.0049C31 13.4745 30.7893 12.9658 30.4142 12.5907C30.0391 12.2156 29.5304 12.0049 29 12.0049H23C22.4696 12.0049 21.9609 12.2156 21.5858 12.5907C21.2107 12.9658 21 13.4745 21 14.0049V15.0049H17V6.00491H21V7.00491C21 7.53535 21.2107 8.04405 21.5858 8.41913C21.9609 8.7942 22.4696 9.00491 23 9.00491ZM23 3.00491H29V7.00491H23V3.00491ZM9 7.00491H3V3.00491H9V7.00491ZM23 25.0049H29V29.0049H23V25.0049ZM23 14.0049H29V18.0049H23V14.0049Z" fill="white"/>
</svg>
